# xmcd
#
# Track frame offsets: 
#        150
#        15288
#        29643
#        45129
#        60838
#        74708
#        89437
#        102625
#        116067
#        132539
#        149024
#        166746
#
# Disc length: 2463 seconds
#
# Revision: 1
# Processed by: cddbd v1.5.2PL0 Copyright (c) Steve Scherf et al.
# Submitted via: ExactAudioCopy v1.0b3
#
DISCID=a7099d0c
DTITLE=Jake Owen - Days Of Gold
DYEAR=2013
DGENRE=Country
TTITLE0=Days Of Gold
TTITLE1=Beachin'
TTITLE2=1972
TTITLE3=Ghost Town
TTITLE4=Life Of The Party
TTITLE5=Good Timing
TTITLE6=Tall Glass Of Something
TTITLE7=One Little Kiss (Never Killed Nobody)
TTITLE8=What We Ain't Got
TTITLE9=Tipsy
TTITLE10=Drivin' All Night
TTITLE11=Sure Feels Right
EXTD=
EXTT0=
EXTT1=
EXTT2=
EXTT3=
EXTT4=
EXTT5=
EXTT6=
EXTT7=
EXTT8=
EXTT9=
EXTT10=
EXTT11=
PLAYORDER=
